<?xml version="1.0" encoding="UTF-8" standalone="no"?>
<svg
   xmlns:dc="http://purl.org/dc/elements/1.1/"
   xmlns:cc="http://creativecommons.org/ns#"
   xmlns:rdf="http://www.w3.org/1999/02/22-rdf-syntax-ns#"
   xmlns:svg="http://www.w3.org/2000/svg"
   xmlns="http://www.w3.org/2000/svg"
   xmlns:sodipodi="http://sodipodi.sourceforge.net/DTD/sodipodi-0.dtd"
   xmlns:inkscape="http://www.inkscape.org/namespaces/inkscape"
   class="bi bi-plus-circle"
   width="1em"
   height="1em"
   viewBox="0 0 16 16"
   fill="currentColor"
   version="1.1"
   id="svg8"
   sodipodi:docname="plus-circle.svg"
   inkscape:version="0.92.5 (2060ec1f9f, 2020-04-08)">
  <metadata
     id="metadata14">
    <rdf:RDF>
      <cc:Work
         rdf:about="">
        <dc:format>image/svg+xml</dc:format>
        <dc:type
           rdf:resource="http://purl.org/dc/dcmitype/StillImage" />
      </cc:Work>
    </rdf:RDF>
  </metadata>
  <defs
     id="defs12" />
  <sodipodi:namedview
     pagecolor="#ffffff"
     bordercolor="#666666"
     borderopacity="1"
     objecttolerance="10"
     gridtolerance="10"
     guidetolerance="10"
     inkscape:pageopacity="0"
     inkscape:pageshadow="2"
     inkscape:window-width="640"
     inkscape:window-height="480"
     id="namedview10"
     showgrid="false"
     inkscape:zoom="14.75"
     inkscape:cx="8"
     inkscape:cy="8"
     inkscape:window-x="0"
     inkscape:window-y="0"
     inkscape:window-maximized="0"
     inkscape:current-layer="svg8" />
  <path
     fill-rule="evenodd"
     d="M8 3.5a.5.5 0 0 1 .5.5v4a.5.5 0 0 1-.5.5H4a.5.5 0 0 1 0-1h3.5V4a.5.5 0 0 1 .5-.5z"
     clip-rule="evenodd"
     id="path2"
     style="fill:#ffffff" />
  <path
     fill-rule="evenodd"
     d="M7.5 8a.5.5 0 0 1 .5-.5h4a.5.5 0 0 1 0 1H8.5V12a.5.5 0 0 1-1 0V8z"
     clip-rule="evenodd"
     id="path4"
     style="fill:#ffffff" />
  <path
     fill-rule="evenodd"
     d="M8 15A7 7 0 1 0 8 1a7 7 0 0 0 0 14zm0 1A8 8 0 1 0 8 0a8 8 0 0 0 0 16z"
     clip-rule="evenodd"
     id="path6"
     style="fill:#ffffff" />
</svg>
